ply
format ascii 1.0
element vertex 100
property float x
property float y
property float z
property uchar red
property uchar green
property uchar blue
property int segment_id
end_header
0.672302305698394775 0.453961193561553955 0.246184825897216797 21 45 154 0
0.179712086915969849 0.0591639764606952667 0.866414189338684082 157 32 18 0
0.291633337736129761 0.256313830614089966 0.375039875507354736 30 253 87 0
0.808786749839782715 0.115126810967922211 0.724142074584960938 36 240 91 0
0.494199365377426147 0.627821028232574463 0.152455896139144897 20 179 11 0
0.754380524158477783 0.959498822689056396 0.00336755998432636261 90 213 157 0
0.102305538952350616 0.856009900569915771 0.760200321674346924 129 177 109 0
0.942439615726470947 0.413899809122085571 0.652063071727752686 254 205 137 0
0.928263425827026367 0.201834529638290405 0.316565275192260742 76 227 75 0
0.603942632675170898 0.316567152738571167 0.576356470584869385 41 221 108 0
0.585783600807189941 0.397747993469238281 0.191651016473770142 209 206 177 0
0.968064665794372559 0.448437780141830444 0.415023863315582275 124 132 13 0
0.54894721508026123 0.690458118915557861 0.0745384320616722107 250 183 213 0
0.0514649674296379089 0.61966097354888916 0.583902478218078613 184 126 87 0
0.243944317102432251 0.651966989040374756 0.482876479625701904 142 51 251 0
0.770224630832672119 0.393481969833374023 0.353678971529006958 28 64 5 0
0.883453905582427979 0.618873655796051025 0.00646730372682213783 233 68 189 0
0.00697707617655396461 0.0111082997173070908 0.635652482509613037 227 52 168 0
0.558055639266967773 0.0765863358974456787 0.116471298038959503 161 81 203 0
0.332986503839492798 0.935282588005065918 0.894048571586608887 111 144 5 0
0.101688966155052185 0.255860298871994019 0.189140543341636658 132 151 9 0
0.992535948753356934 0.00132420752197504044 0.353922158479690552 195 56 112 0
0.370446056127548218 0.772832334041595459 0.0554251149296760559 9 195 122 0
0.253806650638580322 0.0848200470209121704 0.589705228805541992 187 21 209 0
0.0316120646893978119 0.088311024010181427 0.444770127534866333 36 231 219 0
0.411291658878326416 0.924821794033050537 0.883870065212249756 107 193 25 0
0.445460706949234009 0.575031042098999023 0.579179167747497559 203 44 178 0
0.294494509696960449 0.90546804666519165 0.178822383284568787 144 242 142 0
0.88100135326385498 0.810967803001403809 0.683414280414581299 74 208 55 0
0.10704706609249115 0.247921481728553772 0.693297088146209717 106 240 211 0
0.367681682109832764 0.915269553661346436 0.0372218266129493713 223 207 146 0
0.965872645378112793 0.313146859407424927 0.323977857828140259 132 63 138 0
0.733441174030303955 0.629777431488037109 0.829037070274353027 77 245 170 0
0.00747035862877964973 0.808406531810760498 0.801026582717895508 48 10 101 0
0.812614619731903076 0.600531935691833496 0.204289361834526062 106 29 115 0
0.76847463846206665 0.348128914833068848 0.177482709288597107 98 141 177 0
0.662444114685058594 0.379690825939178467 0.614969432353973389 57 71 92 0
0.0238308534026145935 0.807199835777282715 0.550464272499084473 173 164 241 0
0.616940200328826904 0.133972302079200745 0.66456073522567749 235 238 68 0
0.0187776647508144379 0.179152801632881165 0.742101848125457764 230 57 244 0
0.486151576042175293 0.974653124809265137 0.575998604297637939 40 219 97 0
0.089771270751953125 0.412561297416687012 0.528271675109863281 6 135 159 0
0.527108669281005859 0.0928445383906364441 0.264455109834671021 137 131 24 0
0.924401581287384033 0.660378336906433105 0.853063344955444336 108 243 218 0
0.621163308620452881 0.768860816955566406 0.685254216194152832 89 221 151 0
0.119717717170715332 0.648387670516967773 0.723760902881622314 4 115 68 0
0.764603853225708008 0.0564774163067340851 0.916374504566192627 56 56 158 0
0.0280326530337333679 0.330182671546936035 0.286674261093139648 136 12 127 0
0.302931755781173706 0.282553732395172119 0.182247772812843323 170 199 5 0
0.399153739213943481 0.62450253963470459 0.183467566967010498 32 9 77 0
0.499439746141433716 0.279402643442153931 0.871223092079162598 56 228 46 0
0.0834295451641082764 0.412543207406997681 0.685255765914916992 148 38 162 0
0.946424782276153564 0.147852912545204163 0.209390729665756226 122 161 117 0
0.0668796971440315247 0.342531591653823853 0.876829206943511963 198 220 48 0
0.706424713134765625 0.321401387453079224 0.834303379058837891 219 67 12 0
0.49280586838722229 0.998692452907562256 0.228173404932022095 47 228 185 0
0.595666885375976562 0.322538524866104126 0.20857645571231842 65 48 159 0
0.0696100816130638123 0.666511416435241699 0.829767704010009766 229 192 16 0
0.890456795692443848 0.419735372066497803 0.487958014011383057 83 127 70 0
0.878617465496063232 0.790648698806762695 0.94451141357421875 90 17 147 0
0.218622997403144836 0.570489585399627686 0.596166074275970459 8 196 166 0
0.685345232486724854 0.428250998258590698 0.156142845749855042 206 167 10 0
0.337503314018249512 0.0349771343171596527 0.92645418643951416 160 182 132 0
0.000403718469897285104 0.306765496730804443 0.184344843029975891 219 142 147 0
0.597652316093444824 0.316457897424697876 0.0404019728302955627 212 123 216 0
0.342226237058639526 0.905996859073638916 0.697661459445953369 132 188 134 0
0.874388754367828369 0.257725059986114502 0.752547264099121094 53 79 117 0
0.933901846408843994 0.769410073757171631 0.304535001516342163 0 88 75 0
0.393318593502044678 0.981353461742401123 0.361213207244873047 69 177 49 0
0.385055333375930786 0.549916207790374756 0.0366515554487705231 83 49 178 0
0.848936736583709717 0.932027578353881836 0.951977193355560303 160 140 47 0
0.0779405683279037476 0.64764171838760376 0.323073655366897583 110 21 26 0
0.892984509468078613 0.839457213878631592 0.940409183502197266 189 145 101 0
0.373033761978149414 0.32361072301864624 0.733969151973724365 161 25 32 0
0.721386969089508057 0.619791090488433838 0.0706944540143013 185 31 35 0
0.838397562503814697 0.593696117401123047 0.862983822822570801 129 101 229 0
0.722745835781097412 0.297690778970718384 0.122230507433414459 173 93 127 0
0.150845810770988464 0.984320640563964844 0.092008151113986969 88 85 173 0
0.382697165012359619 0.849118947982788086 0.243514508008956909 177 98 71 0
0.191959276795387268 0.771463572978973389 0.601750075817108154 63 84 64 0
0.916492879390716553 0.603714406490325928 0.275419324636459351 139 86 2 0
0.542593300342559814 0.37125357985496521 0.0761504694819450378 1 4 238 0
0.265947490930557251 0.585274338722229004 0.320736020803451538 70 66 169 0
0.883340060710906982 0.698407292366027832 0.252012670040130615 92 227 227 0
0.223740622401237488 0.774504244327545166 0.884790658950805664 150 244 172 0
0.719286203384399414 0.848088860511779785 0.145943090319633484 181 65 158 0
0.310707420110702515 0.136218264698982239 0.574921548366546631 9 61 232 0
0.72198861837387085 0.492372334003448486 0.432092338800430298 213 63 16 0
0.357798457145690918 0.863017082214355469 0.0413689911365509033 179 110 5 0
0.611260950565338135 0.555872201919555664 0.0619880855083465576 127 37 176 0
0.363248944282531738 0.988158702850341797 0.319565266370773315 93 131 171 0
0.538905501365661621 0.684495508670806885 0.832296192646026611 216 3 119 0
0.406681448221206665 0.693947076797485352 0.179150447249412537 214 32 117 0
0.173629164695739746 0.150029584765434265 0.269266843795776367 76 62 88 0
0.194328770041465759 0.160200312733650208 0.478941053152084351 81 136 173 0
0.185121491551399231 0.809728741645812988 0.0164793878793716431 248 204 117 0
0.243724331259727478 0.95031207799911499 0.286926329135894775 73 29 97 0
0.834681272506713867 0.226004034280776978 0.446803092956542969 123 242 193 0
0.927070498466491699 0.0191838163882493973 0.978111207485198975 41 122 200 0
0.930910408496856689 0.412929236888885498 0.101336844265460968 226 78 93 0
